<?xml version="1.0" encoding="UTF-8" standalone="no"?>
<!-- Generator: Adobe Illustrator 16.0.0, SVG Export Plug-In . SVG Version: 6.00 Build 0)  -->

<svg
   xmlns:dc="http://purl.org/dc/elements/1.1/"
   xmlns:cc="http://creativecommons.org/ns#"
   xmlns:rdf="http://www.w3.org/1999/02/22-rdf-syntax-ns#"
   xmlns:svg="http://www.w3.org/2000/svg"
   xmlns="http://www.w3.org/2000/svg"
   xmlns:sodipodi="http://sodipodi.sourceforge.net/DTD/sodipodi-0.dtd"
   xmlns:inkscape="http://www.inkscape.org/namespaces/inkscape"
   version="1.1"
   id="Capa_1"
   x="0px"
   y="0px"
   width="383.395px"
   height="383.395px"
   viewBox="0 0 383.395 383.395"
   style="enable-background:new 0 0 383.395 383.395;"
   xml:space="preserve"
   inkscape:version="0.48.5 r10040"
   sodipodi:docname="icon.svg"><metadata
     id="metadata3143"><rdf:RDF><cc:Work
         rdf:about=""><dc:format>image/svg+xml</dc:format><dc:type
           rdf:resource="http://purl.org/dc/dcmitype/StillImage" /></cc:Work></rdf:RDF></metadata><defs
     id="defs3141" /><sodipodi:namedview
     pagecolor="#ffffff"
     bordercolor="#666666"
     borderopacity="1"
     objecttolerance="10"
     gridtolerance="10"
     guidetolerance="10"
     inkscape:pageopacity="0"
     inkscape:pageshadow="2"
     inkscape:window-width="1920"
     inkscape:window-height="1014"
     id="namedview3139"
     showgrid="false"
     inkscape:zoom="1.7705566"
     inkscape:cx="89.275945"
     inkscape:cy="191.69749"
     inkscape:window-x="0"
     inkscape:window-y="27"
     inkscape:window-maximized="1"
     inkscape:current-layer="Capa_1" /><rect
     style="fill:#5599ff;fill-opacity:1;stroke:none"
     id="rect3930"
     width="277.87872"
     height="365.9866"
     x="54.220238"
     y="5.5476961"
     ry="45.748325" /><path
     inkscape:connector-curvature="0"
     id="path3087"
     d="M 285.296,0 H 98.099 c -28.284,0 -51.3,23.013 -51.3,51.3 v 280.795 c 0,28.281 23.016,51.3 51.3,51.3 h 187.197 c 28.286,0 51.3,-23.019 51.3,-51.3 V 51.3 C 336.596,23.008 313.582,0 285.296,0 z m 35.1,332.095 c 0,19.354 -15.746,35.1 -35.1,35.1 H 98.099 c -19.354,0 -35.1,-15.746 -35.1,-35.1 V 51.3 c 0,-19.354 15.747,-35.1 35.1,-35.1 h 187.197 c 19.354,0 35.1,15.746 35.1,35.1 v 280.795 z" /><rect
     style="fill:#cccccc;fill-opacity:1;stroke:none"
     id="rect3932"
     width="182.9933"
     height="63.256935"
     x="99.40377"
     y="48.472054"
     ry="8.7543049" /><path
     inkscape:connector-curvature="0"
     id="path3089"
     d="M 281.699,43.194 H 101.696 c -4.477,0 -8.1,3.623 -8.1,8.101 v 58.875 c 0,4.478 3.623,8.1 8.1,8.1 h 180.003 c 4.478,0 8.1,-3.623 8.1,-8.1 V 51.295 c 0,-4.478 -3.622,-8.101 -8.1,-8.101 z M 273.6,102.07 H 109.796 V 59.395 H 273.6 v 42.675 z" /><path
     sodipodi:type="arc"
     style="fill:#00ff00;fill-opacity:1;stroke:none"
     id="path3934-3"
     sodipodi:cx="103.63972"
     sodipodi:cy="170.1852"
     sodipodi:rx="25.698133"
     sodipodi:ry="25.698133"
     d="m 129.33785,170.1852 a 25.698133,25.698133 0 1 1 -51.396266,0 25.698133,25.698133 0 1 1 51.396266,0 z"
     transform="translate(88.955097,3.1063708)" /><path
     inkscape:connector-curvature="0"
     id="path3091"
     d="m 191.697,144.002 c -16.379,0 -29.7,13.32 -29.7,29.7 0,16.375 13.321,29.7 29.7,29.7 16.38,0 29.7,-13.325 29.7,-29.7 0,-16.38 -13.32,-29.7 -29.7,-29.7 z m 0,48.6 c -10.423,0 -18.9,-8.479 -18.9,-18.9 0,-10.423 8.477,-18.9 18.9,-18.9 10.426,0 18.9,8.477 18.9,18.9 0.001,10.42 -8.474,18.9 -18.9,18.9 z" /><path
     sodipodi:type="arc"
     style="fill:#0000ff;fill-opacity:1;stroke:none"
     id="path3934"
     sodipodi:cx="103.63972"
     sodipodi:cy="170.1852"
     sodipodi:rx="25.698133"
     sodipodi:ry="25.698133"
     d="m 129.33785,170.1852 a 25.698133,25.698133 0 1 1 -51.396266,0 25.698133,25.698133 0 1 1 51.396266,0 z"
     transform="translate(21.462179,3.3887651)" /><path
     inkscape:connector-curvature="0"
     id="path3093"
     d="m 125.996,144.002 c -16.379,0 -29.7,13.32 -29.7,29.7 0,16.375 13.32,29.7 29.7,29.7 16.38,0 29.7,-13.325 29.7,-29.7 0,-16.38 -13.321,-29.7 -29.7,-29.7 z m 0,48.6 c -10.423,0 -18.9,-8.479 -18.9,-18.9 0,-10.423 8.477,-18.9 18.9,-18.9 10.423,0 18.9,8.477 18.9,18.9 0,10.42 -8.477,18.9 -18.9,18.9 z" /><path
     sodipodi:type="arc"
     style="fill:#00ffff;fill-opacity:1;stroke:none"
     id="path3934-6"
     sodipodi:cx="103.63972"
     sodipodi:cy="170.1852"
     sodipodi:rx="25.698133"
     sodipodi:ry="25.698133"
     d="m 129.33785,170.1852 a 25.698133,25.698133 0 1 1 -51.396266,0 25.698133,25.698133 0 1 1 51.396266,0 z"
     transform="translate(153.90642,3.6711644)" /><path
     inkscape:connector-curvature="0"
     id="path3095"
     d="m 257.399,144.002 c -16.38,0 -29.7,13.32 -29.7,29.7 0,16.375 13.32,29.7 29.7,29.7 16.379,0 29.7,-13.325 29.7,-29.7 0.001,-16.38 -13.321,-29.7 -29.7,-29.7 z m 0,48.6 c -10.421,0 -18.9,-8.479 -18.9,-18.9 0,-10.423 8.479,-18.9 18.9,-18.9 10.42,0 18.899,8.477 18.899,18.9 10e-4,10.42 -8.479,18.9 -18.899,18.9 z" /><path
     sodipodi:type="arc"
     style="fill:#800080;fill-opacity:1;stroke:none"
     id="path3934-5"
     sodipodi:cx="103.63972"
     sodipodi:cy="170.1852"
     sodipodi:rx="25.698133"
     sodipodi:ry="25.698133"
     d="m 129.33785,170.1852 a 25.698133,25.698133 0 1 1 -51.396266,0 25.698133,25.698133 0 1 1 51.396266,0 z"
     transform="translate(87.825513,68.622495)" /><path
     inkscape:connector-curvature="0"
     id="path3097"
     d="m 191.697,208.802 c -16.379,0 -29.7,13.32 -29.7,29.7 0,16.374 13.321,29.699 29.7,29.699 16.38,0 29.7,-13.325 29.7,-29.699 0,-16.38 -13.32,-29.7 -29.7,-29.7 z m 0,48.599 c -10.423,0 -18.9,-8.479 -18.9,-18.899 0,-10.426 8.477,-18.9 18.9,-18.9 10.426,0 18.9,8.475 18.9,18.9 0.001,10.42 -8.474,18.899 -18.9,18.899 z" /><path
     sodipodi:type="arc"
     style="fill:#f2f2f2;fill-opacity:1;stroke:none"
     id="path3934-35"
     sodipodi:cx="103.63972"
     sodipodi:cy="170.1852"
     sodipodi:rx="25.698133"
     sodipodi:ry="25.698133"
     d="m 129.33785,170.1852 a 25.698133,25.698133 0 1 1 -51.396266,0 25.698133,25.698133 0 1 1 51.396266,0 z"
     transform="translate(22.874178,68.057701)" /><path
     inkscape:connector-curvature="0"
     id="path3099"
     d="m 125.996,208.802 c -16.379,0 -29.7,13.32 -29.7,29.7 0,16.374 13.32,29.699 29.7,29.699 16.38,0 29.7,-13.325 29.7,-29.699 0,-16.38 -13.321,-29.7 -29.7,-29.7 z m 0,48.599 c -10.423,0 -18.9,-8.479 -18.9,-18.899 0,-10.426 8.477,-18.9 18.9,-18.9 10.423,0 18.9,8.475 18.9,18.9 0,10.42 -8.477,18.899 -18.9,18.899 z" /><path
     sodipodi:type="arc"
     style="fill:#808000;fill-opacity:1;stroke:none"
     id="path3934-7"
     sodipodi:cx="103.63972"
     sodipodi:cy="170.1852"
     sodipodi:rx="25.698133"
     sodipodi:ry="25.698133"
     d="m 129.33785,170.1852 a 25.698133,25.698133 0 1 1 -51.396266,0 25.698133,25.698133 0 1 1 51.396266,0 z"
     transform="translate(154.47122,67.492907)" /><path
     inkscape:connector-curvature="0"
     id="path3101"
     d="m 257.399,208.802 c -16.38,0 -29.7,13.32 -29.7,29.7 0,16.374 13.32,29.699 29.7,29.699 16.379,0 29.7,-13.325 29.7,-29.699 0.001,-16.38 -13.321,-29.7 -29.7,-29.7 z m 0,48.599 c -10.421,0 -18.9,-8.479 -18.9,-18.899 0,-10.426 8.479,-18.9 18.9,-18.9 10.42,0 18.899,8.475 18.899,18.9 10e-4,10.42 -8.479,18.899 -18.899,18.899 z" /><path
     sodipodi:type="arc"
     style="fill:#ffff00;fill-opacity:1;stroke:none"
     id="path3934-9"
     sodipodi:cx="103.63972"
     sodipodi:cy="170.1852"
     sodipodi:rx="25.698133"
     sodipodi:ry="25.698133"
     d="m 129.33785,170.1852 a 25.698133,25.698133 0 1 1 -51.396266,0 25.698133,25.698133 0 1 1 51.396266,0 z"
     transform="translate(88.390302,132.44424)" /><path
     inkscape:connector-curvature="0"
     id="path3103"
     d="m 191.697,273.602 c -16.379,0 -29.7,13.321 -29.7,29.7 0,16.374 13.321,29.7 29.7,29.7 16.38,0 29.7,-13.326 29.7,-29.7 0,-16.379 -13.32,-29.7 -29.7,-29.7 z m 0,48.6 c -10.423,0 -18.9,-8.48 -18.9,-18.9 0,-10.426 8.477,-18.9 18.9,-18.9 10.426,0 18.9,8.475 18.9,18.9 0.001,10.42 -8.474,18.9 -18.9,18.9 z" /><path
     sodipodi:type="arc"
     style="fill:#ff0000;fill-opacity:1;stroke:none"
     id="path3934-62"
     sodipodi:cx="103.63972"
     sodipodi:cy="170.1852"
     sodipodi:rx="25.698133"
     sodipodi:ry="25.698133"
     d="m 129.33785,170.1852 a 25.698133,25.698133 0 1 1 -51.396266,0 25.698133,25.698133 0 1 1 51.396266,0 z"
     transform="translate(22.309384,132.44424)" /><path
     inkscape:connector-curvature="0"
     id="path3105"
     d="m 125.996,273.602 c -16.379,0 -29.7,13.321 -29.7,29.7 0,16.374 13.32,29.7 29.7,29.7 16.38,0 29.7,-13.326 29.7,-29.7 0,-16.379 -13.321,-29.7 -29.7,-29.7 z m 0,48.6 c -10.423,0 -18.9,-8.48 -18.9,-18.9 0,-10.426 8.477,-18.9 18.9,-18.9 10.423,0 18.9,8.475 18.9,18.9 0,10.42 -8.477,18.9 -18.9,18.9 z" /><path
     sodipodi:type="arc"
     style="fill:#008080;fill-opacity:1;stroke:none"
     id="path3934-1"
     sodipodi:cx="103.63972"
     sodipodi:cy="170.1852"
     sodipodi:rx="25.698133"
     sodipodi:ry="25.698133"
     d="m 129.33785,170.1852 a 25.698133,25.698133 0 1 1 -51.396266,0 25.698133,25.698133 0 1 1 51.396266,0 z"
     transform="translate(155.03602,132.44424)" /><path
     inkscape:connector-curvature="0"
     id="path3107"
     d="m 257.399,273.602 c -16.38,0 -29.7,13.321 -29.7,29.7 0,16.374 13.32,29.7 29.7,29.7 16.379,0 29.7,-13.326 29.7,-29.7 0.001,-16.379 -13.321,-29.7 -29.7,-29.7 z m 0,48.6 c -10.421,0 -18.9,-8.48 -18.9,-18.9 0,-10.426 8.479,-18.9 18.9,-18.9 10.42,0 18.899,8.475 18.899,18.9 10e-4,10.42 -8.479,18.9 -18.899,18.9 z" /><g
     id="g3109" /><g
     id="g3111" /><g
     id="g3113" /><g
     id="g3115" /><g
     id="g3117" /><g
     id="g3119" /><g
     id="g3121" /><g
     id="g3123" /><g
     id="g3125" /><g
     id="g3127" /><g
     id="g3129" /><g
     id="g3131" /><g
     id="g3133" /><g
     id="g3135" /><g
     id="g3137" /></svg>
